<svg width="172" height="172" viewBox="0 0 172 172" fill="none" xmlns="http://www.w3.org/2000/svg">
<path d="M171.102 85.2928C171.102 132.399 132.916 170.586 85.8096 170.586C38.7037 170.586 0.516846 132.399 0.516846 85.2928C0.516846 38.1869 38.7037 0 85.8096 0C132.916 0 171.102 38.1869 171.102 85.2928Z" fill="#F6A801"/>
<path d="M58.4368 74.184C66.5023 80.4451 66.5023 90.5963 58.4368 96.8573C50.3714 103.118 37.2946 103.118 29.2292 96.8573C21.1637 90.5963 21.1637 80.4451 29.2292 74.184C37.2946 67.9229 50.3714 67.9229 58.4368 74.184Z" fill="#FDD65D"/>
<path d="M118.021 120.438C126.086 126.699 126.086 136.85 118.021 143.111C109.955 149.372 96.8785 149.372 88.813 143.111C80.7476 136.85 80.7476 126.699 88.813 120.438C96.8785 114.177 109.955 114.177 118.021 120.438Z" fill="#FDD65D"/>
<path d="M29.2292 96.8573L58.4368 74.184L118.021 120.438L88.813 143.111L29.2292 96.8573Z" fill="#FDD65D"/>
<path d="M118.021 50.684C109.955 56.9451 96.8787 56.9451 88.8132 50.684C80.7477 44.423 80.7477 34.2718 88.8132 28.0107C96.8787 21.7496 109.955 21.7496 118.021 28.0107C126.086 34.2718 126.086 44.423 118.021 50.684Z" fill="#FDD65D"/>
<path d="M58.4369 96.9374C50.3714 103.199 37.2947 103.199 29.2292 96.9374C21.1637 90.6764 21.1637 80.5252 29.2292 74.2641C37.2947 68.003 50.3714 68.003 58.4369 74.2641C66.5024 80.5252 66.5024 90.6764 58.4369 96.9374Z" fill="#FDD65D"/>
<path d="M88.8132 28.0107L118.021 50.684L58.4369 96.9374L29.2292 74.2641L88.8132 28.0107Z" fill="#FDD65D"/>
<path d="M66.5916 74.184C72.8526 80.4451 72.8526 90.5963 66.5916 96.8573C60.3305 103.118 50.1793 103.118 43.9182 96.8573C37.6572 90.5963 37.6572 80.4451 43.9182 74.184C50.1793 67.9229 60.3305 67.9229 66.5916 74.184Z" fill="#F9F7F6"/>
<path d="M112.845 120.438C119.106 126.699 119.106 136.85 112.845 143.111C106.584 149.372 96.433 149.372 90.1719 143.111C83.9108 136.85 83.9108 126.699 90.1719 120.438C96.433 114.177 106.584 114.177 112.845 120.438Z" fill="#F9F7F6"/>
<path d="M43.9182 96.8573L66.5916 74.184L112.845 120.438L90.1719 143.111L43.9182 96.8573Z" fill="#F9F7F6"/>
<path d="M112.845 50.6839C106.584 56.945 96.4329 56.945 90.1718 50.6839C83.9107 44.4228 83.9107 34.2716 90.1718 28.0106C96.4329 21.7495 106.584 21.7495 112.845 28.0106C119.106 34.2716 119.106 44.4228 112.845 50.6839Z" fill="#F9F7F6"/>
<path d="M66.5917 96.9374C60.3306 103.199 50.1794 103.199 43.9183 96.9374C37.6573 90.6764 37.6573 80.5252 43.9183 74.2641C50.1794 68.003 60.3306 68.003 66.5917 74.2641C72.8528 80.5252 72.8528 90.6764 66.5917 96.9374Z" fill="#F9F7F6"/>
<path d="M90.1718 28.0106L112.845 50.6839L66.5917 96.9374L43.9183 74.2641L90.1718 28.0106Z" fill="#F9F7F6"/>
</svg>
