<svg width="162" height="162" viewBox="0 0 162 162" fill="none" xmlns="http://www.w3.org/2000/svg">
<path fill-rule="evenodd" clip-rule="evenodd" d="M31.3818 0H10C4.47715 0 0 4.47715 0 9.99999V151.871C0 157.393 4.47716 161.871 10 161.871H112.212C117.735 161.871 122.212 157.393 122.212 151.871V67.0743C118.658 67.907 114.983 68.5455 111.212 68.9729V150.871H11V11H27.9834C28.5778 7.19549 29.7309 3.51404 31.3818 0Z" fill="#014656"/>
<path d="M98.5216 0C76.549 0 56.562 6.41062 41.6709 16.8867L47.8615 24.5097C61.3669 15.5307 79.1005 10.0832 98.5215 10.0832C118.001 10.0832 135.782 15.5634 149.303 24.5905L155.491 16.9704C140.587 6.44477 120.553 0 98.5216 0Z" fill="#014656"/>
<path d="M68.8978 49.7139L68.8857 49.7367C54.5807 42.3948 42.8986 32.3533 34.8022 21.0538L43.1598 15.8981C44.9595 18.2752 46.9336 20.5866 49.0709 22.8161L47.8884 24.5361L68.8978 49.7139Z" fill="#014656"/>
<path d="M127.904 49.7139L127.916 49.7368C142.221 42.3949 153.904 32.3533 162 21.0538L153.642 15.8981C151.843 18.2752 149.868 20.5868 147.731 22.8163L148.913 24.5361L127.904 49.7139Z" fill="#014656"/>
<path d="M71.3284 18.4258C71.2751 19.1667 71.2479 19.9153 71.2479 20.6707C71.2479 36.7275 83.5121 49.7441 98.6407 49.7441C113.769 49.7441 126.033 36.7275 126.033 20.6707C126.033 19.4407 125.962 18.2285 125.822 17.0386C117.998 14.7146 109.534 13.4448 100.699 13.4448C90.2405 13.4448 80.3013 15.2243 71.3284 18.4258Z" fill="#014656"/>
</svg>
